<svg width="1024" height="1024" viewBox="0 0 1024 1024" fill="none" xmlns="http://www.w3.org/2000/svg">
<g clip-path="url(#clip0_147_1237)">
<path d="M106.361 629V396.273H195.452C212.27 396.273 226.247 398.924 237.384 404.227C248.596 409.455 256.967 416.614 262.497 425.705C268.103 434.795 270.906 445.098 270.906 456.614C270.906 466.083 269.088 474.189 265.452 480.932C261.815 487.598 256.929 493.015 250.793 497.182C244.656 501.348 237.8 504.341 230.224 506.159V508.432C238.482 508.886 246.399 511.424 253.974 516.045C261.626 520.591 267.876 527.03 272.724 535.364C277.573 543.697 279.997 553.773 279.997 565.591C279.997 577.636 277.081 588.47 271.247 598.091C265.414 607.636 256.626 615.174 244.884 620.705C233.141 626.235 218.368 629 200.565 629H106.361ZM148.52 593.773H193.861C209.164 593.773 220.187 590.856 226.929 585.023C233.747 579.114 237.156 571.538 237.156 562.295C237.156 555.402 235.452 549.189 232.043 543.659C228.634 538.053 223.785 533.659 217.497 530.477C211.209 527.22 203.709 525.591 194.997 525.591H148.52V593.773ZM148.52 495.25H190.224C197.497 495.25 204.05 493.924 209.884 491.273C215.717 488.545 220.3 484.72 223.634 479.795C227.043 474.795 228.747 468.886 228.747 462.068C228.747 453.053 225.565 445.629 219.202 439.795C212.914 433.962 203.558 431.045 191.134 431.045H148.52V495.25ZM410.105 555.591V454.455H451.241V629H411.355V597.977H409.537C405.598 607.75 399.12 615.742 390.105 621.955C381.166 628.167 370.143 631.273 357.037 631.273C345.598 631.273 335.484 628.735 326.696 623.659C317.984 618.508 311.166 611.045 306.241 601.273C301.317 591.424 298.855 579.53 298.855 565.591V454.455H339.991V559.227C339.991 570.288 343.022 579.076 349.082 585.591C355.143 592.106 363.098 595.364 372.946 595.364C379.007 595.364 384.878 593.886 390.56 590.932C396.241 587.977 400.901 583.583 404.537 577.75C408.249 571.841 410.105 564.455 410.105 555.591ZM518.679 396.273V629H477.543V396.273H518.679ZM586.116 396.273V629H544.98V396.273H586.116ZM689.69 632.409C672.19 632.409 657.077 628.773 644.349 621.5C631.698 614.152 621.963 603.773 615.145 590.364C608.327 576.879 604.918 561.008 604.918 542.75C604.918 524.795 608.327 509.038 615.145 495.477C622.039 481.841 631.66 471.235 644.009 463.659C656.357 456.008 670.865 452.182 687.531 452.182C698.289 452.182 708.44 453.924 717.986 457.409C727.607 460.818 736.092 466.121 743.44 473.318C750.865 480.515 756.698 489.682 760.94 500.818C765.183 511.879 767.304 525.061 767.304 540.364V552.977H624.236V525.25H727.872C727.796 517.371 726.092 510.364 722.759 504.227C719.425 498.015 714.766 493.129 708.781 489.568C702.872 486.008 695.978 484.227 688.099 484.227C679.69 484.227 672.304 486.273 665.94 490.364C659.577 494.379 654.615 499.682 651.054 506.273C647.569 512.788 645.789 519.947 645.713 527.75V551.955C645.713 562.106 647.569 570.818 651.281 578.091C654.993 585.288 660.183 590.818 666.849 594.682C673.516 598.47 681.319 600.364 690.259 600.364C696.243 600.364 701.66 599.53 706.509 597.864C711.357 596.121 715.562 593.583 719.122 590.25C722.683 586.917 725.372 582.788 727.19 577.864L765.599 582.182C763.175 592.333 758.554 601.197 751.736 608.773C744.993 616.273 736.357 622.106 725.827 626.273C715.296 630.364 703.251 632.409 689.69 632.409ZM924.06 500.591L886.56 504.682C885.499 500.894 883.643 497.333 880.991 494C878.416 490.667 874.931 487.977 870.537 485.932C866.143 483.886 860.764 482.864 854.401 482.864C845.84 482.864 838.643 484.72 832.81 488.432C827.052 492.144 824.211 496.955 824.287 502.864C824.211 507.939 826.067 512.068 829.855 515.25C833.719 518.432 840.082 521.045 848.946 523.091L878.719 529.455C895.234 533.015 907.507 538.659 915.537 546.386C923.643 554.114 927.734 564.227 927.81 576.727C927.734 587.712 924.514 597.409 918.151 605.818C911.863 614.152 903.113 620.667 891.901 625.364C880.688 630.061 867.81 632.409 853.264 632.409C831.901 632.409 814.704 627.939 801.673 619C788.643 609.985 780.878 597.447 778.378 581.386L818.491 577.523C820.31 585.402 824.173 591.348 830.082 595.364C835.991 599.379 843.681 601.386 853.151 601.386C862.923 601.386 870.764 599.379 876.673 595.364C882.658 591.348 885.651 586.386 885.651 580.477C885.651 575.477 883.719 571.348 879.855 568.091C876.067 564.833 870.158 562.333 862.128 560.591L832.355 554.341C815.613 550.856 803.226 544.985 795.196 536.727C787.166 528.394 783.188 517.864 783.264 505.136C783.188 494.379 786.105 485.061 792.014 477.182C797.999 469.227 806.295 463.091 816.901 458.773C827.582 454.379 839.893 452.182 853.832 452.182C874.287 452.182 890.385 456.538 902.128 465.25C913.946 473.962 921.257 485.742 924.06 500.591Z" fill="#18181B"/>
</g>
<defs>
<clipPath id="clip0_147_1237">
<path d="M0 5C0 2.23858 2.23858 0 5 0H1019C1021.76 0 1024 2.23858 1024 5V1019C1024 1021.76 1021.76 1024 1019 1024H5C2.23858 1024 0 1021.76 0 1019V5Z" fill="white"/>
</clipPath>
</defs>
</svg>
